<svg height="32pt" viewBox="0 0 512 512" width="32pt" xmlns="http://www.w3.org/2000/svg"><path d="m456.832031 0h-401.667969c-30.417968 0-55.164062 24.746094-55.164062 55.164062v294.238282c0 30.421875 24.746094 55.167968 55.164062 55.167968h127.296876l42.160156 84.316407c7.34375 14.6875 18.777344 23.113281 31.378906 23.113281 12.597656 0 24.035156-8.425781 31.378906-23.113281l42.15625-84.3125h127.296875c30.417969 0 55.164063-24.75 55.164063-55.167969v-294.242188c0-30.417968-24.746094-55.164062-55.164063-55.164062zm0 0" fill="#ff9f00"/><path d="m456.832031 0h-200.832031v512c12.597656 0 24.035156-8.425781 31.378906-23.113281l42.15625-84.3125h127.296875c30.417969 0 55.164063-24.75 55.164063-55.167969v-294.242188c0-30.417968-24.746094-55.164062-55.164063-55.164062zm0 0" fill="#ff641a"/><path d="m302.109375 189.730469c15.355469-13.074219 25.121094-32.527344 25.121094-54.230469 0-39.277344-31.953125-71.234375-71.234375-71.234375-39.273438 0-71.230469 31.957031-71.230469 71.234375 0 21.703125 9.769531 41.15625 25.125 54.230469-25.375 15.566406-42.339844 43.5625-42.339844 75.449219v55.085937c0 8.285156 6.714844 15 15 15h146.894531c8.285157 0 15-6.714844 15-15v-55.085937c0-31.886719-16.960937-59.882813-42.335937-75.449219zm0 0" fill="#e7f0ef"/><path d="m302.109375 189.730469c15.355469-13.074219 25.121094-32.527344 25.121094-54.230469 0-39.277344-31.953125-71.234375-71.230469-71.234375v271h73.445312c8.285157 0 15-6.714844 15-15v-55.082031c0-31.890625-16.960937-59.886719-42.335937-75.453125zm0 0" fill="#c5e1e6"/></svg>